{"title":"Underground 2011 BDRip Xvid-WDR","uid":7057111,"size":731397349,"categoryP":"video","categoryS":"movies","magnet":"?xt=urn:btih:bf2a3659e885e99e64ac36fa82a1d3cf14a00f43&amp;dn=Underground+2011+BDRip+Xvid-WDR&amp;tr=udp%3A%2F%2Ftracker.openbittorrent.com%3A80&amp;tr=udp%3A%2F%2Fopen.demonii.com%3A1337&amp;tr=udp%3A%2F%2Ftracker.coppersurfer.tk%3A6969&amp;tr=udp%3A%2F%2Fexodus.desync.com%3A6969","seeders":1,"leechers":0,"uploader":"MisterNobody","files":3,"time":1330128799,"description":" Video\n     Format : MPEG-4 Visual\n     Format profile : Simple@L1\n     Format settings, BVOP : No\n     Format settings, QPel : No\n     Format settings, GMC : No warppoints\n     Format settings, Matrix : Default\n     Codec ID : XVID\n     Codec ID/Hint : XviD\n     Duration : 1h 26mn\n     Bit rate : 1 200 Kbps\n     Width : 1 088 pixels\n     Height : 448 pixels\n     Display aspect ratio : 2.429\n     Frame rate : 23.976 fps\n     Resolution : 24 bits\n     Colorimetry : 4:2:0\n     Scan type : Progressive\n     Bits/(Pixel*Frame) : 0.103\n     Stream size : 744 MiB (90%)\n     Writing library : Lavc51.44.0\n  Audio\n     Format : MPEG Audio\n     Format version : Version 1\n     Format profile : Layer 3\n     Codec ID : 55\n     Codec ID/Hint : MP3\n     Duration : 1h 26mn\n     Bit rate mode : Constant\n     Bit rate : 128 Kbps\n     Channel(s) : 2 channels\n     Sampling rate : 44.1 KHz\n     Resolution : 16 bits\n     Stream size : 79.4 MiB (10%)\n     Alignment : Aligned on interleaves\n     Interleave, duration : 26 ms (0.63 video frame)\n     Interleave, preload duration : 522 ms\n     Writing library : LAME3.98","torrent":{"xt":"urn:btih:bf2a3659e885e99e64ac36fa82a1d3cf14a00f43","amp;dn":"Underground+2011+BDRip+Xvid-WDR","amp;tr":["udp%3A%2F%2Ftracker.openbittorrent.com%3A80","udp%3A%2F%2Fopen.demonii.com%3A1337","udp%3A%2F%2Ftracker.coppersurfer.tk%3A6969","udp%3A%2F%2Fexodus.desync.com%3A6969"],"infoHash":"bf2a3659e885e99e64ac36fa82a1d3cf14a00f43","infoHashBuffer":{"type":"Buffer","data":[191,42,54,89,232,133,233,158,100,172,54,250,130,161,211,207,20,160,15,67]},"announce":[],"urlList":[]}}